<svg width="196" height="34" viewBox="0 0 196 34" fill="none" xmlns="http://www.w3.org/2000/svg">
<path d="M0.864 27L11.664 1.62H16.776L27.576 27H21.78L19.476 21.348H8.82L6.516 27H0.864ZM10.8 16.452H17.496L14.148 8.28L10.8 16.452ZM35.9075 27.18L25.7195 1.8H31.8395L38.4275 19.548L45.0155 1.8H50.9915L40.8035 27.18H35.9075ZM60.7475 27V6.912H53.0795V1.8H73.9595V6.912H66.2915V27H60.7475Z" fill="#EB5F12"/>
<path d="M82.782 28V15.4H87.498C88.938 15.4 90.084 15.76 90.936 16.48C91.788 17.2 92.214 18.184 92.214 19.432C92.214 20.74 91.74 21.754 90.792 22.474C89.856 23.194 88.68 23.554 87.264 23.554H84.204V28H82.782ZM84.204 22.258H87.318C88.362 22.258 89.196 22.006 89.82 21.502C90.456 20.986 90.774 20.302 90.774 19.45C90.774 18.574 90.468 17.902 89.856 17.434C89.256 16.954 88.434 16.714 87.39 16.714H84.204V22.258ZM95.3994 23.914C95.4954 24.862 95.8494 25.618 96.4614 26.182C97.0854 26.734 97.8234 27.01 98.6754 27.01C99.7914 27.01 100.769 26.572 101.609 25.696L102.473 26.47C101.429 27.634 100.151 28.216 98.6394 28.216C97.3314 28.216 96.2274 27.766 95.3274 26.866C94.4394 25.954 93.9954 24.784 93.9954 23.356C93.9954 22 94.4214 20.854 95.2734 19.918C96.1254 18.97 97.1874 18.496 98.4594 18.496C99.7914 18.496 100.847 18.964 101.627 19.9C102.407 20.836 102.797 22.012 102.797 23.428C102.797 23.608 102.791 23.77 102.779 23.914H95.3994ZM95.3994 22.798H101.393C101.309 21.898 101.009 21.154 100.493 20.566C99.9894 19.966 99.2994 19.666 98.4234 19.666C97.6314 19.666 96.9534 19.96 96.3894 20.548C95.8254 21.136 95.4954 21.886 95.3994 22.798ZM105.224 28V18.694H106.61V21.124C106.97 20.32 107.48 19.678 108.14 19.198C108.8 18.718 109.556 18.496 110.408 18.532V20.026H110.3C109.232 20.026 108.35 20.398 107.654 21.142C106.958 21.886 106.61 22.936 106.61 24.292V28H105.224ZM113.041 28V19.918H111.763V18.712H113.041V17.902C113.041 16.846 113.311 16.048 113.851 15.508C114.331 15.028 114.997 14.788 115.849 14.788C116.437 14.788 116.947 14.866 117.379 15.022V16.228C116.827 16.072 116.377 15.994 116.029 15.994C114.949 15.994 114.409 16.654 114.409 17.974V18.73H117.361V19.918H114.427V28H113.041ZM126.674 26.794C125.738 27.742 124.58 28.216 123.2 28.216C121.82 28.216 120.668 27.742 119.744 26.794C118.832 25.846 118.376 24.7 118.376 23.356C118.376 22.024 118.838 20.884 119.762 19.936C120.698 18.976 121.856 18.496 123.236 18.496C124.616 18.496 125.768 18.97 126.692 19.918C127.616 20.866 128.078 22.012 128.078 23.356C128.078 24.688 127.61 25.834 126.674 26.794ZM123.236 26.974C124.232 26.974 125.048 26.626 125.684 25.93C126.332 25.234 126.656 24.376 126.656 23.356C126.656 22.348 126.32 21.49 125.648 20.782C124.988 20.074 124.172 19.72 123.2 19.72C122.204 19.72 121.388 20.074 120.752 20.782C120.116 21.478 119.798 22.336 119.798 23.356C119.798 24.364 120.128 25.222 120.788 25.93C121.448 26.626 122.264 26.974 123.236 26.974ZM130.589 28V18.694H131.975V21.124C132.335 20.32 132.845 19.678 133.505 19.198C134.165 18.718 134.921 18.496 135.773 18.532V20.026H135.665C134.597 20.026 133.715 20.398 133.019 21.142C132.323 21.886 131.975 22.936 131.975 24.292V28H130.589ZM137.884 28V18.694H139.27V20.26C140.05 19.084 141.052 18.496 142.276 18.496C143.668 18.496 144.664 19.114 145.264 20.35C146.068 19.114 147.16 18.496 148.54 18.496C149.608 18.496 150.448 18.832 151.06 19.504C151.684 20.176 151.996 21.088 151.996 22.24V28H150.61V22.564C150.61 21.664 150.394 20.974 149.962 20.494C149.542 20.002 148.954 19.756 148.198 19.756C147.466 19.756 146.854 20.014 146.362 20.53C145.87 21.046 145.624 21.748 145.624 22.636V28H144.256V22.528C144.256 21.664 144.04 20.986 143.608 20.494C143.188 20.002 142.606 19.756 141.862 19.756C141.118 19.756 140.5 20.032 140.008 20.584C139.516 21.136 139.27 21.838 139.27 22.69V28H137.884ZM157.777 28.198C156.829 28.198 156.013 27.94 155.329 27.424C154.645 26.908 154.303 26.188 154.303 25.264C154.303 24.292 154.663 23.542 155.383 23.014C156.103 22.486 157.069 22.222 158.281 22.222C159.241 22.222 160.189 22.354 161.125 22.618V22.33C161.125 21.514 160.885 20.89 160.405 20.458C159.925 20.026 159.247 19.81 158.371 19.81C157.459 19.81 156.517 20.032 155.545 20.476L155.131 19.342C156.283 18.814 157.411 18.55 158.515 18.55C159.835 18.55 160.837 18.892 161.521 19.576C162.169 20.224 162.493 21.136 162.493 22.312V28H161.125V26.614C160.297 27.67 159.181 28.198 157.777 28.198ZM158.047 27.082C158.911 27.082 159.643 26.848 160.243 26.38C160.843 25.912 161.143 25.312 161.143 24.58V23.716C160.231 23.452 159.325 23.32 158.425 23.32C157.573 23.32 156.907 23.494 156.427 23.842C155.947 24.178 155.707 24.64 155.707 25.228C155.707 25.792 155.929 26.242 156.373 26.578C156.829 26.914 157.387 27.082 158.047 27.082ZM165.429 28V18.694H166.815V20.314C167.547 19.102 168.609 18.496 170.001 18.496C171.105 18.496 171.975 18.838 172.611 19.522C173.247 20.194 173.565 21.094 173.565 22.222V28H172.179V22.564C172.179 21.688 171.951 21.004 171.495 20.512C171.051 20.008 170.421 19.756 169.605 19.756C168.801 19.756 168.135 20.026 167.607 20.566C167.079 21.106 166.815 21.808 166.815 22.672V28H165.429ZM180.715 28.216C179.371 28.216 178.237 27.742 177.313 26.794C176.401 25.834 175.945 24.688 175.945 23.356C175.945 22.024 176.401 20.884 177.313 19.936C178.237 18.976 179.371 18.496 180.715 18.496C182.155 18.496 183.397 19.048 184.441 20.152L183.559 21.088C182.695 20.176 181.741 19.72 180.697 19.72C179.761 19.72 178.969 20.074 178.321 20.782C177.685 21.478 177.367 22.336 177.367 23.356C177.367 24.364 177.691 25.222 178.339 25.93C178.999 26.626 179.815 26.974 180.787 26.974C181.783 26.974 182.719 26.506 183.595 25.57L184.513 26.416C183.433 27.616 182.167 28.216 180.715 28.216ZM187.368 23.914C187.464 24.862 187.818 25.618 188.43 26.182C189.054 26.734 189.792 27.01 190.644 27.01C191.76 27.01 192.738 26.572 193.578 25.696L194.442 26.47C193.398 27.634 192.12 28.216 190.608 28.216C189.3 28.216 188.196 27.766 187.296 26.866C186.408 25.954 185.964 24.784 185.964 23.356C185.964 22 186.39 20.854 187.242 19.918C188.094 18.97 189.156 18.496 190.428 18.496C191.76 18.496 192.816 18.964 193.596 19.9C194.376 20.836 194.766 22.012 194.766 23.428C194.766 23.608 194.76 23.77 194.748 23.914H187.368ZM187.368 22.798H193.362C193.278 21.898 192.978 21.154 192.462 20.566C191.958 19.966 191.268 19.666 190.392 19.666C189.6 19.666 188.922 19.96 188.358 20.548C187.794 21.136 187.464 21.886 187.368 22.798Z" fill="white"/>
</svg>
